# xmcd
#
# Track frame offsets:
#	150
#	58371
#	98692
#	133146
#	176018
#	203513
#
# Disc length: 3594 seconds
#
# Revision: 0
# Processed by: cddbd v1.5.2PL0 Copyright (c) Steve Scherf et al.
# Submitted via: audiograbber 1.83.01
#
DISCID=520e0806
DTITLE=Grateful Dead - 93-03-20 The Omni, Atlanta GA
DYEAR=1900
DGENRE=
TTITLE0=Eyes Of The World
TTITLE1=Looks Like Rain
TTITLE2=Lazy River Road
TTITLE3=Truckin'
TTITLE4=Smokestack Lightning
TTITLE5=Drums
EXTD=
EXTT0=
EXTT1=
EXTT2=
EXTT3=
EXTT4=
EXTT5=
PLAYORDER=
